<?xml version="1.0" encoding="utf-8"?>
<!-- Generator: Adobe Illustrator 24.0.2, SVG Export Plug-In . SVG Version: 6.00 Build 0)  -->
<svg version="1.1" xmlns="http://www.w3.org/2000/svg" xmlns:xlink="http://www.w3.org/1999/xlink" x="0px" y="0px"
	 viewBox="0 0 73.5 96.7" style="enable-background:new 0 0 73.5 96.7;" xml:space="preserve">
<style type="text/css">
	.st0{fill:#721F20;}
	.st1{fill:#B93218;}
	.st2{fill:#FFFFFF;}
	.st3{display:none;}
	.st4{display:inline;}
</style>
<g id="Calque_1">
	<path class="st0" d="M44-0.8C25-2.3,8.4,11.7,6.8,30.6C4.7,57.1,36.4,92.7,36.4,92.7s37-30.2,39.2-56.5C77.1,17.3,63,0.8,44-0.8z"
		/>
	<path class="st1" d="M36.6,3C18.4,3,3.7,17.7,3.7,35.9C3.7,61.4,36.6,93,36.6,93s32.9-31.7,32.9-57.1C69.5,17.7,54.8,3,36.6,3z"/>
	<g>
		<path class="st2" d="M30.3,31.7c0.3,0,0.6-0.1,0.9-0.1c1.5-0.3,2.8-1.3,3.7-2.9c0.8-1.5,1-3.3,0.7-5.1c-0.7-3.5-3.2-6-6.1-6
			c-0.3,0-0.6,0.1-0.9,0.1C27,18,25.6,19,24.8,20.6c-0.8,1.5-1,3.3-0.7,5.1C24.8,29.2,27.5,31.7,30.3,31.7z"/>
		<path class="st2" d="M23.7,31.5c-0.6-1.7-1.7-3.1-3-4c-1-0.6-2-0.9-2.9-0.9c-0.5,0-1,0.1-1.5,0.3c-2.9,1-4.2,4.7-3,8.3
			c0.6,1.7,1.7,3.1,3,4c1,0.6,2,0.9,2.9,0.9c0.5,0,1-0.1,1.5-0.3C23.6,38.8,24.9,35.1,23.7,31.5z"/>
		<path class="st2" d="M42.6,31.6c0.3,0.1,0.6,0.1,0.9,0.1c2.8,0,5.4-2.5,6-6c0.4-1.8,0.1-3.7-0.7-5.1c-0.8-1.6-2.1-2.6-3.7-2.9
			c-0.3-0.1-0.6-0.1-0.9-0.1c-2.8,0-5.4,2.5-6.1,6c-0.4,1.8-0.1,3.7,0.7,5.1C39.8,30.3,41.1,31.3,42.6,31.6z"/>
		<path class="st2" d="M57.5,26.8c-0.5-0.2-1-0.3-1.5-0.3c-1,0-2,0.3-2.9,0.9c-1.4,0.9-2.4,2.3-3,4c-1.2,3.6,0.1,7.3,3,8.3
			c0.5,0.2,1,0.3,1.5,0.3c1,0,2-0.3,2.9-0.9c1.4-0.9,2.4-2.3,3-4C61.7,31.5,60.4,27.8,57.5,26.8z"/>
		<path class="st2" d="M43.7,35.2c-2-1.6-4.4-2.4-6.8-2.4S32,33.6,30,35.2c-4.8,3.9-10.4,9.5-10.4,14.8c0,6.3,8.6,9.5,17.3,9.5
			s17.3-3.1,17.3-9.5C54.1,44.8,48.5,39.1,43.7,35.2z"/>
	</g>
</g>
<g id="Calque_1_-_copie_2" class="st3">
	<path class="st4" d="M36.6,3C18.4,3,3.7,17.7,3.7,35.9C3.7,61.4,36.6,93,36.6,93s32.9-31.7,32.9-57.1C69.5,17.7,54.8,3,36.6,3z"/>
	<g class="st4">
		<path class="st2" d="M30.3,31.7c0.3,0,0.6-0.1,0.9-0.1c1.5-0.3,2.8-1.3,3.7-2.9c0.8-1.5,1-3.3,0.7-5.1c-0.7-3.5-3.2-6-6.1-6
			c-0.3,0-0.6,0.1-0.9,0.1C27,18,25.6,19,24.8,20.6c-0.8,1.5-1,3.3-0.7,5.1C24.8,29.2,27.5,31.7,30.3,31.7z M27.6,22
			c0.3-0.5,0.7-1.1,1.5-1.3c0.1,0,0.2-0.1,0.3-0.1c1.1,0,2.6,1.3,3,3.5c0.2,1.2,0.1,2.3-0.4,3.1c-0.3,0.5-0.7,1.1-1.5,1.3
			c-0.1,0-0.2,0.1-0.3,0.1c-1.1,0-2.6-1.3-3-3.5C27,24,27.2,22.8,27.6,22z"/>
		<path class="st2" d="M23.7,31.5c-0.6-1.7-1.7-3.1-3-4c-1-0.6-2-0.9-2.9-0.9c-0.5,0-1,0.1-1.5,0.3c-2.9,1-4.2,4.7-3,8.3
			c0.6,1.7,1.7,3.1,3,4c1,0.6,2,0.9,2.9,0.9c0.5,0,1-0.1,1.5-0.3C23.6,38.8,24.9,35.1,23.7,31.5z M19.7,36.9
			c-0.2,0.1-0.3,0.1-0.5,0.1c-0.4,0-0.8-0.2-1.3-0.4c-0.8-0.5-1.4-1.4-1.8-2.4c-0.7-2.1,0-4,1.1-4.4c0.2-0.1,0.3-0.1,0.5-0.1
			c0.4,0,0.8,0.2,1.3,0.4c0.8,0.5,1.4,1.4,1.8,2.4c0.4,1.1,0.4,2.2,0.1,3C20.7,35.9,20.4,36.6,19.7,36.9z"/>
		<path class="st2" d="M42.6,31.6c0.3,0.1,0.6,0.1,0.9,0.1c2.8,0,5.4-2.5,6-6c0.4-1.8,0.1-3.7-0.7-5.1c-0.8-1.6-2.1-2.6-3.7-2.9
			c-0.3-0.1-0.6-0.1-0.9-0.1c-2.8,0-5.4,2.5-6.1,6c-0.4,1.8-0.1,3.7,0.7,5.1C39.8,30.3,41.1,31.3,42.6,31.6z M41.4,24.2
			c0.4-2.1,1.9-3.5,3-3.5c0.1,0,0.2,0,0.3,0.1c0.8,0.2,1.2,0.8,1.5,1.3c0.5,0.9,0.6,2,0.4,3.1c-0.4,2.1-1.9,3.5-3,3.5
			c-0.1,0-0.2,0-0.3-0.1c-0.8-0.2-1.2-0.8-1.5-1.3C41.3,26.5,41.2,25.3,41.4,24.2z"/>
		<path class="st2" d="M57.5,26.8c-0.5-0.2-1-0.3-1.5-0.3c-1,0-2,0.3-2.9,0.9c-1.4,0.9-2.4,2.3-3,4c-1.2,3.6,0.1,7.3,3,8.3
			c0.5,0.2,1,0.3,1.5,0.3c1,0,2-0.3,2.9-0.9c1.4-0.9,2.4-2.3,3-4C61.7,31.5,60.4,27.8,57.5,26.8z M57.6,34.1c-0.4,1.1-1,1.9-1.8,2.4
			c-0.4,0.3-0.9,0.4-1.3,0.4c-0.2,0-0.4-0.1-0.5-0.1c-1.1-0.4-1.8-2.3-1.1-4.4c0.4-1.1,1-1.9,1.8-2.4c0.4-0.3,0.9-0.4,1.3-0.4
			c0.2,0,0.4,0.1,0.5,0.1C57.6,30.1,58.3,32,57.6,34.1z"/>
		<path class="st2" d="M43.7,35.2c-2-1.6-4.4-2.4-6.8-2.4S32,33.6,30,35.2c-4.8,3.9-10.4,9.5-10.4,14.8c0,6.3,8.6,9.5,17.3,9.5
			s17.3-3.1,17.3-9.5C54.1,44.8,48.5,39.1,43.7,35.2z M36.9,56.3c-7,0-14.2-2.4-14.2-6.4c0-3.1,3.3-7.6,9.2-12.3
			c1.4-1.1,3.1-1.7,4.9-1.7c1.8,0,3.5,0.6,4.9,1.7c5.9,4.8,9.2,9.2,9.2,12.3C51,54,43.8,56.3,36.9,56.3z"/>
	</g>
</g>
<g id="Calque_1_-_copie" class="st3">
	<path class="st4" d="M36.6,3C18.4,3,3.7,17.7,3.7,35.9C3.7,61.4,36.6,93,36.6,93s32.9-31.7,32.9-57.1C69.5,17.7,54.8,3,36.6,3z"/>
	<g class="st4">
		<path class="st2" d="M30.3,31.7c0.3,0,0.6-0.1,0.9-0.1c1.5-0.3,2.8-1.3,3.7-2.9c0.8-1.5,1-3.3,0.7-5.1c-0.7-3.5-3.2-6-6.1-6
			c-0.3,0-0.6,0.1-0.9,0.1C27,18,25.6,19,24.8,20.6c-0.8,1.5-1,3.3-0.7,5.1C24.8,29.2,27.5,31.7,30.3,31.7z M27.6,22
			c0.3-0.5,0.7-1.1,1.5-1.3c0.1,0,0.2-0.1,0.3-0.1c1.1,0,2.6,1.3,3,3.5c0.2,1.2,0.1,2.3-0.4,3.1c-0.3,0.5-0.7,1.1-1.5,1.3
			c-0.1,0-0.2,0.1-0.3,0.1c-1.1,0-2.6-1.3-3-3.5C27,24,27.2,22.8,27.6,22z"/>
		<path class="st2" d="M23.7,31.5c-0.6-1.7-1.7-3.1-3-4c-1-0.6-2-0.9-2.9-0.9c-0.5,0-1,0.1-1.5,0.3c-2.9,1-4.2,4.7-3,8.3
			c0.6,1.7,1.7,3.1,3,4c1,0.6,2,0.9,2.9,0.9c0.5,0,1-0.1,1.5-0.3C23.6,38.8,24.9,35.1,23.7,31.5z M19.7,36.9
			c-0.2,0.1-0.3,0.1-0.5,0.1c-0.4,0-0.8-0.2-1.3-0.4c-0.8-0.5-1.4-1.4-1.8-2.4c-0.7-2.1,0-4,1.1-4.4c0.2-0.1,0.3-0.1,0.5-0.1
			c0.4,0,0.8,0.2,1.3,0.4c0.8,0.5,1.4,1.4,1.8,2.4c0.4,1.1,0.4,2.2,0.1,3C20.7,35.9,20.4,36.6,19.7,36.9z"/>
		<path class="st2" d="M42.6,31.6c0.3,0.1,0.6,0.1,0.9,0.1c2.8,0,5.4-2.5,6-6c0.4-1.8,0.1-3.7-0.7-5.1c-0.8-1.6-2.1-2.6-3.7-2.9
			c-0.3-0.1-0.6-0.1-0.9-0.1c-2.8,0-5.4,2.5-6.1,6c-0.4,1.8-0.1,3.7,0.7,5.1C39.8,30.3,41.1,31.3,42.6,31.6z M41.4,24.2
			c0.4-2.1,1.9-3.5,3-3.5c0.1,0,0.2,0,0.3,0.1c0.8,0.2,1.2,0.8,1.5,1.3c0.5,0.9,0.6,2,0.4,3.1c-0.4,2.1-1.9,3.5-3,3.5
			c-0.1,0-0.2,0-0.3-0.1c-0.8-0.2-1.2-0.8-1.5-1.3C41.3,26.5,41.2,25.3,41.4,24.2z"/>
		<path class="st2" d="M57.5,26.8c-0.5-0.2-1-0.3-1.5-0.3c-1,0-2,0.3-2.9,0.9c-1.4,0.9-2.4,2.3-3,4c-1.2,3.6,0.1,7.3,3,8.3
			c0.5,0.2,1,0.3,1.5,0.3c1,0,2-0.3,2.9-0.9c1.4-0.9,2.4-2.3,3-4C61.7,31.5,60.4,27.8,57.5,26.8z M57.6,34.1c-0.4,1.1-1,1.9-1.8,2.4
			c-0.4,0.3-0.9,0.4-1.3,0.4c-0.2,0-0.4-0.1-0.5-0.1c-1.1-0.4-1.8-2.3-1.1-4.4c0.4-1.1,1-1.9,1.8-2.4c0.4-0.3,0.9-0.4,1.3-0.4
			c0.2,0,0.4,0.1,0.5,0.1C57.6,30.1,58.3,32,57.6,34.1z"/>
		<path class="st2" d="M43.7,35.2c-2-1.6-4.4-2.4-6.8-2.4S32,33.6,30,35.2c-4.8,3.9-10.4,9.5-10.4,14.8c0,6.3,8.6,9.5,17.3,9.5
			s17.3-3.1,17.3-9.5C54.1,44.8,48.5,39.1,43.7,35.2z M36.9,56.3c-7,0-14.2-2.4-14.2-6.4c0-3.1,3.3-7.6,9.2-12.3
			c1.4-1.1,3.1-1.7,4.9-1.7c1.8,0,3.5,0.6,4.9,1.7c5.9,4.8,9.2,9.2,9.2,12.3C51,54,43.8,56.3,36.9,56.3z"/>
	</g>
</g>
</svg>
