<?xml version="1.0" encoding="utf-8"?>
<!-- Generator: Adobe Illustrator 24.0.2, SVG Export Plug-In . SVG Version: 6.00 Build 0)  -->
<svg version="1.1" xmlns="http://www.w3.org/2000/svg" xmlns:xlink="http://www.w3.org/1999/xlink" x="0px" y="0px"
	 viewBox="0 0 48 60" style="enable-background:new 0 0 48 60;" xml:space="preserve">
<style type="text/css">
	.st0{display:none;}
	.st1{display:inline;}
</style>
<g id="Calque_1" class="st0">
	<title>Ui vol.1</title>
	<g class="st1">
		<path d="M45.1,4.6h-35c-0.6,0-1,0.4-1,1c0,0,0,0,0,0v6.3H2.9c-0.6,0-1,0.4-1,1c0,0,0,0,0,0v29.5c0,0.6,0.4,1,1,1c0,0,0,0,0,0h34.7
			c0.6,0,1-0.4,1-1c0,0,0,0,0,0v-6.3h6.6c0.6,0,1-0.4,1-1c0,0,0,0,0,0V5.6C46.1,5,45.7,4.6,45.1,4.6C45.1,4.6,45.1,4.6,45.1,4.6z
			 M10.2,13.9h26.4v16.4h-6c-1.4-0.1-2.7-0.4-4-1c-3.1-1.2-6.4-2.1-9.8-2.6c-6.2-1-10.6,2.7-12.9,5.4V13.9H10.2z M36.6,41.4H3.9v-6
			c0.8-1.2,5.4-8,12.6-6.8c3.2,0.5,6.4,1.3,9.4,2.5c1.5,0.7,3.1,1.1,4.7,1.1h6L36.6,41.4L36.6,41.4z M44.1,34.1h-5.6V12.9
			c0-0.6-0.4-1-1-1c0,0,0,0,0,0H11.2V6.6h33V34.1z"/>
		<path d="M27.6,26.7c2.8,0,5-2.2,5-5c0-2.8-2.2-5-5-5c-2.8,0-5,2.2-5,5C22.7,24.4,24.9,26.7,27.6,26.7z M27.6,18.7c1.7,0,3,1.3,3,3
			s-1.3,3-3,3c-1.7,0-3-1.3-3-3C24.7,20,26,18.7,27.6,18.7L27.6,18.7z"/>
	</g>
</g>
<g id="Calque_1_-_copie_2">
	<title>Ui vol.1</title>
	<g>
		<path d="M45.1,4.6h-35c-0.6,0-1,0.4-1,1c0,0,0,0,0,0v6.3H2.9c-0.6,0-1,0.4-1,1c0,0,0,0,0,0v29.5c0,0.6,0.4,1,1,1c0,0,0,0,0,0h34.7
			c0.6,0,1-0.4,1-1c0,0,0,0,0,0v-6.3h6.6c0.6,0,1-0.4,1-1c0,0,0,0,0,0V5.6C46.1,5,45.7,4.6,45.1,4.6C45.1,4.6,45.1,4.6,45.1,4.6z
			 M3.9,41.4V13.9h6.3h26.4l0,27.5 M44.1,34.1h-5.6V12.9c0-0.6-0.4-1-1-1c0,0,0,0,0,0H11.2V6.6h33V34.1z"/>
	</g>
</g>
<g id="Calque_3">
	<g>
		<path d="M17.1,24.4c0.1,0,0.3,0,0.4,0c0.7-0.1,1.3-0.6,1.7-1.3c0.3-0.7,0.5-1.5,0.3-2.3C19.2,19.1,18,18,16.7,18
			c-0.1,0-0.3,0-0.4,0c-0.7,0.1-1.3,0.6-1.7,1.3c-0.3,0.7-0.5,1.5-0.3,2.3C14.6,23.2,15.8,24.4,17.1,24.4z M15.9,20
			c0.1-0.2,0.3-0.5,0.7-0.6c0,0,0.1,0,0.1,0c0.5,0,1.2,0.6,1.4,1.6c0.1,0.5,0,1-0.2,1.4c-0.1,0.2-0.3,0.5-0.7,0.6c0,0-0.1,0-0.1,0
			c-0.5,0-1.2-0.6-1.4-1.6C15.6,20.9,15.7,20.4,15.9,20z"/>
		<path d="M14.1,24.3c-0.3-0.8-0.8-1.4-1.4-1.8c-0.4-0.3-0.9-0.4-1.3-0.4c-0.2,0-0.5,0-0.7,0.1c-1.3,0.5-1.9,2.1-1.4,3.8
			c0.3,0.8,0.8,1.4,1.4,1.8c0.4,0.3,0.9,0.4,1.3,0.4c0.2,0,0.5,0,0.7-0.1C14.1,27.6,14.7,25.9,14.1,24.3z M12.3,26.7
			c-0.1,0-0.1,0-0.2,0c-0.2,0-0.4-0.1-0.6-0.2c-0.4-0.2-0.6-0.6-0.8-1.1c-0.3-0.9,0-1.8,0.5-2c0.1,0,0.1,0,0.2,0
			c0.2,0,0.4,0.1,0.6,0.2c0.4,0.2,0.6,0.6,0.8,1.1c0.2,0.5,0.2,1,0,1.4C12.8,26.3,12.6,26.6,12.3,26.7z"/>
		<path d="M22.7,24.3c0.1,0,0.3,0,0.4,0c1.3,0,2.5-1.2,2.7-2.7c0.2-0.8,0-1.7-0.3-2.3c-0.4-0.7-0.9-1.2-1.7-1.3c-0.1,0-0.3,0-0.4,0
			c-1.3,0-2.5,1.2-2.8,2.7c-0.2,0.8,0,1.7,0.3,2.3C21.4,23.7,22,24.2,22.7,24.3z M22.1,21c0.2-1,0.9-1.6,1.4-1.6c0,0,0.1,0,0.1,0
			c0.3,0.1,0.6,0.3,0.7,0.6c0.2,0.4,0.3,0.9,0.2,1.4c-0.2,1-0.9,1.6-1.4,1.6c0,0-0.1,0-0.1,0c-0.3-0.1-0.6-0.3-0.7-0.6
			C22.1,22,22.1,21.5,22.1,21z"/>
		<path d="M29.5,22.1C29.2,22.1,29,22,28.8,22c-0.5,0-0.9,0.1-1.3,0.4c-0.6,0.4-1.1,1.1-1.4,1.8c-0.6,1.6,0,3.3,1.4,3.8
			c0.2,0.1,0.5,0.1,0.7,0.1c0.5,0,0.9-0.1,1.3-0.4c0.6-0.4,1.1-1.1,1.4-1.8C31.4,24.3,30.8,22.6,29.5,22.1z M29.5,25.5
			c-0.2,0.5-0.5,0.9-0.8,1.1c-0.2,0.1-0.4,0.2-0.6,0.2c-0.1,0-0.2,0-0.2,0c-0.5-0.2-0.8-1-0.5-2c0.2-0.5,0.5-0.9,0.8-1.1
			c0.2-0.1,0.4-0.2,0.6-0.2c0.1,0,0.2,0,0.2,0C29.5,23.7,29.8,24.5,29.5,25.5z"/>
		<path d="M23.2,26c-0.9-0.7-2-1.1-3.1-1.1c-1.1,0-2.2,0.4-3.1,1.1c-2.2,1.8-4.7,4.3-4.7,6.7c0,2.9,3.9,4.3,7.8,4.3s7.8-1.4,7.8-4.3
			C27.9,30.3,25.4,27.8,23.2,26z M20.1,35.5c-3.2,0-6.4-1.1-6.4-2.9c0-1.4,1.5-3.4,4.2-5.6c0.6-0.5,1.4-0.8,2.2-0.8s1.6,0.3,2.2,0.8
			c2.7,2.2,4.2,4.2,4.2,5.6C26.5,34.5,23.3,35.5,20.1,35.5z"/>
	</g>
</g>
</svg>
