<?xml version="1.0" encoding="utf-8"?>
<!-- Generator: Adobe Illustrator 24.0.2, SVG Export Plug-In . SVG Version: 6.00 Build 0)  -->
<svg version="1.1" xmlns="http://www.w3.org/2000/svg" xmlns:xlink="http://www.w3.org/1999/xlink" x="0px" y="0px"
	 viewBox="0 0 87.6 98.3" style="enable-background:new 0 0 87.6 98.3;" xml:space="preserve">
<style type="text/css">
	.st0{display:none;fill:#4E8B2D;}
	.st1{display:none;fill:#65B330;}
	.st2{fill:#FFFFFF;}
	.st3{opacity:0.3;}
	.st4{display:none;}
	.st5{display:inline;}
</style>
<g id="Calque_1">
	<path class="st0" d="M12.5,2.3c-19-1.5-35.6,12.5-37.1,31.4C-26.8,60.2,4.9,95.8,4.9,95.8s37-30.2,39.2-56.5
		C45.6,20.3,31.5,3.8,12.5,2.3z"/>
	<path class="st1" d="M5.1,6c-18.2,0-32.9,14.7-32.9,32.9C-27.8,64.4,5.1,96,5.1,96S38,64.3,38,38.9C38,20.7,23.3,6,5.1,6z"/>
	<g>
		<path class="st2" d="M-1.2,34.7c0.3,0,0.6-0.1,0.9-0.1c1.5-0.3,2.8-1.3,3.7-2.9c0.8-1.5,1-3.3,0.7-5.1c-0.7-3.5-3.2-6-6.1-6
			c-0.3,0-0.6,0.1-0.9,0.1c-1.5,0.3-2.8,1.3-3.7,2.9c-0.8,1.5-1,3.3-0.7,5.1C-6.7,32.3-4,34.7-1.2,34.7z"/>
		<path class="st2" d="M-7.8,34.5c-0.6-1.7-1.7-3.1-3-4c-1-0.6-2-0.9-2.9-0.9c-0.5,0-1,0.1-1.5,0.3c-2.9,1-4.2,4.7-3,8.3
			c0.6,1.7,1.7,3.1,3,4c1,0.6,2,0.9,2.9,0.9c0.5,0,1-0.1,1.5-0.3C-7.9,41.8-6.6,38.1-7.8,34.5z"/>
		<path class="st2" d="M11.1,34.7c0.3,0.1,0.6,0.1,0.9,0.1c2.8,0,5.4-2.5,6-6c0.4-1.8,0.1-3.7-0.7-5.1c-0.8-1.6-2.1-2.6-3.7-2.9
			c-0.3-0.1-0.6-0.1-0.9-0.1c-2.8,0-5.4,2.5-6.1,6c-0.4,1.8-0.1,3.7,0.7,5.1C8.3,33.4,9.6,34.4,11.1,34.7z"/>
		<path class="st2" d="M26,29.8c-0.5-0.2-1-0.3-1.5-0.3c-1,0-2,0.3-2.9,0.9c-1.4,0.9-2.4,2.3-3,4c-1.2,3.6,0.1,7.3,3,8.3
			c0.5,0.2,1,0.3,1.5,0.3c1,0,2-0.3,2.9-0.9c1.4-0.9,2.4-2.3,3-4C30.2,34.5,28.9,30.8,26,29.8z"/>
		<path class="st2" d="M12.2,38.3c-2-1.6-4.4-2.4-6.8-2.4s-4.9,0.8-6.8,2.4c-4.8,3.9-10.4,9.5-10.4,14.8c0,6.3,8.6,9.5,17.3,9.5
			s17.3-3.1,17.3-9.5C22.6,47.8,17,42.2,12.2,38.3z"/>
	</g>
	<g class="st3">
		
			<image style="overflow:visible;" width="157" height="150" xlink:href="B3ED46DE.png"  transform="matrix(1 0 0 1 -38.7347 -13.4642)">
		</image>
	</g>
</g>
<g id="Calque_1_-_copie_2" class="st4">
	<path class="st5" d="M5.1,6c-18.2,0-32.9,14.7-32.9,32.9C-27.8,64.4,5.1,96,5.1,96S38,64.3,38,38.9C38,20.7,23.3,6,5.1,6z"/>
	<g class="st5">
		<path class="st2" d="M-1.2,34.7c0.3,0,0.6-0.1,0.9-0.1c1.5-0.3,2.8-1.3,3.7-2.9c0.8-1.5,1-3.3,0.7-5.1c-0.7-3.5-3.2-6-6.1-6
			c-0.3,0-0.6,0.1-0.9,0.1c-1.5,0.3-2.8,1.3-3.7,2.9c-0.8,1.5-1,3.3-0.7,5.1C-6.7,32.3-4,34.7-1.2,34.7z M-3.9,25.1
			c0.3-0.5,0.7-1.1,1.5-1.3c0.1,0,0.2-0.1,0.3-0.1c1.1,0,2.6,1.3,3,3.5c0.2,1.2,0.1,2.3-0.4,3.1c-0.3,0.5-0.7,1.1-1.5,1.3
			c-0.1,0-0.2,0.1-0.3,0.1c-1.1,0-2.6-1.3-3-3.5C-4.5,27-4.3,25.9-3.9,25.1z"/>
		<path class="st2" d="M-7.8,34.5c-0.6-1.7-1.7-3.1-3-4c-1-0.6-2-0.9-2.9-0.9c-0.5,0-1,0.1-1.5,0.3c-2.9,1-4.2,4.7-3,8.3
			c0.6,1.7,1.7,3.1,3,4c1,0.6,2,0.9,2.9,0.9c0.5,0,1-0.1,1.5-0.3C-7.9,41.8-6.6,38.1-7.8,34.5z M-11.8,39.9
			c-0.2,0.1-0.3,0.1-0.5,0.1c-0.4,0-0.8-0.2-1.3-0.4c-0.8-0.5-1.4-1.4-1.8-2.4c-0.7-2.1,0-4,1.1-4.4c0.2-0.1,0.3-0.1,0.5-0.1
			c0.4,0,0.8,0.2,1.3,0.4c0.8,0.5,1.4,1.4,1.8,2.4c0.4,1.1,0.4,2.2,0.1,3C-10.8,39-11.1,39.7-11.8,39.9z"/>
		<path class="st2" d="M11.1,34.7c0.3,0.1,0.6,0.1,0.9,0.1c2.8,0,5.4-2.5,6-6c0.4-1.8,0.1-3.7-0.7-5.1c-0.8-1.6-2.1-2.6-3.7-2.9
			c-0.3-0.1-0.6-0.1-0.9-0.1c-2.8,0-5.4,2.5-6.1,6c-0.4,1.8-0.1,3.7,0.7,5.1C8.3,33.4,9.6,34.4,11.1,34.7z M9.9,27.2
			c0.4-2.1,1.9-3.5,3-3.5c0.1,0,0.2,0,0.3,0.1c0.8,0.2,1.2,0.8,1.5,1.3c0.5,0.9,0.6,2,0.4,3.1c-0.4,2.1-1.9,3.5-3,3.5
			c-0.1,0-0.2,0-0.3-0.1c-0.8-0.2-1.2-0.8-1.5-1.3C9.8,29.5,9.7,28.4,9.9,27.2z"/>
		<path class="st2" d="M26,29.8c-0.5-0.2-1-0.3-1.5-0.3c-1,0-2,0.3-2.9,0.9c-1.4,0.9-2.4,2.3-3,4c-1.2,3.6,0.1,7.3,3,8.3
			c0.5,0.2,1,0.3,1.5,0.3c1,0,2-0.3,2.9-0.9c1.4-0.9,2.4-2.3,3-4C30.2,34.5,28.9,30.8,26,29.8z M26.1,37.1c-0.4,1.1-1,1.9-1.8,2.4
			C23.9,39.9,23.4,40,23,40c-0.2,0-0.4-0.1-0.5-0.1c-1.1-0.4-1.8-2.3-1.1-4.4c0.4-1.1,1-1.9,1.8-2.4c0.4-0.3,0.9-0.4,1.3-0.4
			c0.2,0,0.4,0.1,0.5,0.1C26.1,33.2,26.8,35,26.1,37.1z"/>
		<path class="st2" d="M12.2,38.3c-2-1.6-4.4-2.4-6.8-2.4s-4.9,0.8-6.8,2.4c-4.8,3.9-10.4,9.5-10.4,14.8c0,6.3,8.6,9.5,17.3,9.5
			s17.3-3.1,17.3-9.5C22.6,47.8,17,42.2,12.2,38.3z M5.4,59.4c-7,0-14.2-2.4-14.2-6.4c0-3.1,3.3-7.6,9.2-12.3
			C1.8,39.6,3.6,39,5.4,39s3.5,0.6,4.9,1.7c5.9,4.8,9.2,9.2,9.2,12.3C19.5,57,12.3,59.4,5.4,59.4z"/>
	</g>
</g>
<g id="Calque_1_-_copie" class="st4">
	<path class="st5" d="M5.1,6c-18.2,0-32.9,14.7-32.9,32.9C-27.8,64.4,5.1,96,5.1,96S38,64.3,38,38.9C38,20.7,23.3,6,5.1,6z"/>
	<g class="st5">
		<path class="st2" d="M-1.2,34.7c0.3,0,0.6-0.1,0.9-0.1c1.5-0.3,2.8-1.3,3.7-2.9c0.8-1.5,1-3.3,0.7-5.1c-0.7-3.5-3.2-6-6.1-6
			c-0.3,0-0.6,0.1-0.9,0.1c-1.5,0.3-2.8,1.3-3.7,2.9c-0.8,1.5-1,3.3-0.7,5.1C-6.7,32.3-4,34.7-1.2,34.7z M-3.9,25.1
			c0.3-0.5,0.7-1.1,1.5-1.3c0.1,0,0.2-0.1,0.3-0.1c1.1,0,2.6,1.3,3,3.5c0.2,1.2,0.1,2.3-0.4,3.1c-0.3,0.5-0.7,1.1-1.5,1.3
			c-0.1,0-0.2,0.1-0.3,0.1c-1.1,0-2.6-1.3-3-3.5C-4.5,27-4.3,25.9-3.9,25.1z"/>
		<path class="st2" d="M-7.8,34.5c-0.6-1.7-1.7-3.1-3-4c-1-0.6-2-0.9-2.9-0.9c-0.5,0-1,0.1-1.5,0.3c-2.9,1-4.2,4.7-3,8.3
			c0.6,1.7,1.7,3.1,3,4c1,0.6,2,0.9,2.9,0.9c0.5,0,1-0.1,1.5-0.3C-7.9,41.8-6.6,38.1-7.8,34.5z M-11.8,39.9
			c-0.2,0.1-0.3,0.1-0.5,0.1c-0.4,0-0.8-0.2-1.3-0.4c-0.8-0.5-1.4-1.4-1.8-2.4c-0.7-2.1,0-4,1.1-4.4c0.2-0.1,0.3-0.1,0.5-0.1
			c0.4,0,0.8,0.2,1.3,0.4c0.8,0.5,1.4,1.4,1.8,2.4c0.4,1.1,0.4,2.2,0.1,3C-10.8,39-11.1,39.7-11.8,39.9z"/>
		<path class="st2" d="M11.1,34.7c0.3,0.1,0.6,0.1,0.9,0.1c2.8,0,5.4-2.5,6-6c0.4-1.8,0.1-3.7-0.7-5.1c-0.8-1.6-2.1-2.6-3.7-2.9
			c-0.3-0.1-0.6-0.1-0.9-0.1c-2.8,0-5.4,2.5-6.1,6c-0.4,1.8-0.1,3.7,0.7,5.1C8.3,33.4,9.6,34.4,11.1,34.7z M9.9,27.2
			c0.4-2.1,1.9-3.5,3-3.5c0.1,0,0.2,0,0.3,0.1c0.8,0.2,1.2,0.8,1.5,1.3c0.5,0.9,0.6,2,0.4,3.1c-0.4,2.1-1.9,3.5-3,3.5
			c-0.1,0-0.2,0-0.3-0.1c-0.8-0.2-1.2-0.8-1.5-1.3C9.8,29.5,9.7,28.4,9.9,27.2z"/>
		<path class="st2" d="M26,29.8c-0.5-0.2-1-0.3-1.5-0.3c-1,0-2,0.3-2.9,0.9c-1.4,0.9-2.4,2.3-3,4c-1.2,3.6,0.1,7.3,3,8.3
			c0.5,0.2,1,0.3,1.5,0.3c1,0,2-0.3,2.9-0.9c1.4-0.9,2.4-2.3,3-4C30.2,34.5,28.9,30.8,26,29.8z M26.1,37.1c-0.4,1.1-1,1.9-1.8,2.4
			C23.9,39.9,23.4,40,23,40c-0.2,0-0.4-0.1-0.5-0.1c-1.1-0.4-1.8-2.3-1.1-4.4c0.4-1.1,1-1.9,1.8-2.4c0.4-0.3,0.9-0.4,1.3-0.4
			c0.2,0,0.4,0.1,0.5,0.1C26.1,33.2,26.8,35,26.1,37.1z"/>
		<path class="st2" d="M12.2,38.3c-2-1.6-4.4-2.4-6.8-2.4s-4.9,0.8-6.8,2.4c-4.8,3.9-10.4,9.5-10.4,14.8c0,6.3,8.6,9.5,17.3,9.5
			s17.3-3.1,17.3-9.5C22.6,47.8,17,42.2,12.2,38.3z M5.4,59.4c-7,0-14.2-2.4-14.2-6.4c0-3.1,3.3-7.6,9.2-12.3
			C1.8,39.6,3.6,39,5.4,39s3.5,0.6,4.9,1.7c5.9,4.8,9.2,9.2,9.2,12.3C19.5,57,12.3,59.4,5.4,59.4z"/>
	</g>
</g>
</svg>
